<?xml version="1.0" encoding="utf-8"?>
<!-- Generator: Adobe Illustrator 21.0.2, SVG Export Plug-In . SVG Version: 6.00 Build 0)  -->
<svg version="1.1" id="Layer_1" xmlns="http://www.w3.org/2000/svg" xmlns:xlink="http://www.w3.org/1999/xlink" x="0px" y="0px"
	 viewBox="0 0 283.7 691.3" style="enable-background:new 0 0 283.7 691.3;" xml:space="preserve">
<style type="text/css">
	.st0{fill:#231F20;}
	.st1{fill:#262262;}
	.st2{fill:#FFFFFF;stroke:#231F20;stroke-miterlimit:10;}
	.st3{fill:#EA5A39;}
	.st4{fill:#EFC8A0;}
	.st5{fill:#D64D35;}
	.st6{fill:#3C2415;}
	.st7{fill:none;stroke:#3C2415;stroke-miterlimit:10;}
	.st8{fill:#FFFFFF;}
	.st9{fill:#7079BA;}
</style>
<title>me</title>
<path class="st0" d="M125.2,660.7c0,0-2.5-26.8-26-30.4S48,667.8,31.7,670.5s-9.2,17.5,16.2,20.5c24.3,2.9,63.7-19.8,77.2-22.1"/>
<path class="st1" d="M53.2,432.3l8.4,109.2c1.4,20.8,11.5,77.1,15.1,96.2c0.6,3.4,3.7,5.9,7.2,5.7c11.9-0.5,23.6,2.6,33.6,9
	c18.4,11.4,11.7-98.6,11.7-98.6l49-96.5L53.2,432.3z"/>
<path class="st0" d="M180.7,673.4c0,0-6.9-26.3,13-29.3c19.8-3,61.3-5,75-2.7s17.9,8.8,13.3,28.9S192.1,675.3,180.7,673.4"/>
<path class="st1" d="M111.8,447.7c0,0,64.5,80.8,73.7,101s-14.7,108.1-2.9,102.2c18.1-9.1,44.1,22.2,47.1-22.2
	c2.9-42.6,24.5-49,15.7-80.5c0,0-0.8-110.8-7.5-115.2S111.8,447.7,111.8,447.7z"/>
<path class="st2" d="M128.8,72.5"/>
<path class="st3" d="M83.5,237.7c0,0-51.8,199.9-30.2,224s191.3,28.1,191.3-3.5s-43-227.6-43-227.6S143,218.7,83.5,237.7z"/>
<path class="st4" d="M26.6,312.7c0,0-2.3,76.4,62.1,89c59.8,11.8-23.9-22.5-25.9-79.8C61.9,294.1,26.6,312.7,26.6,312.7z"/>
<path class="st4" d="M257.3,300.8c0,0,7.6,87-56.9,99.7c-59.8,11.8,27.6-24.9,29.6-82.1C231,290.5,257.3,300.8,257.3,300.8z"/>
<path class="st5" d="M67.2,239.3c-4.6,3.2-8.4,7.3-11.2,12.2c-10.3,17.5-42.8,74-34.5,79.2c5,3.1,35.8-13.5,52.2,13.8
	c0,0,2.9-7.7,11-71.5C90.3,229.8,76.7,232.8,67.2,239.3z"/>
<path class="st5" d="M217.9,241c5.9,3.8,10.8,8.9,14.4,14.9c9.9,16,34.4,56.9,31.7,65.1c-3.3,10.3-34-2.7-38.6,18.7
	c0,0-17-11.9-26.1-70.5C193.3,231.2,207.3,234.2,217.9,241z"/>
<path class="st4" d="M23.5,70c0,0-26.7,198.5,121.9,188.7C289.9,249.3,258.2,70,258.2,70S154.5,18.2,23.5,70z"/>
<ellipse class="st6" cx="81.6" cy="154" rx="7.8" ry="21.9"/>
<ellipse class="st6" cx="201.2" cy="154" rx="7.8" ry="21.9"/>
<path class="st0" d="M75.9,7.9c-20,0-81.8,55.8-75.5,126.9c0,0,23.7-72.2,75.9-58.6s182-29.6,182,47.5c0,53.8,4.8-9.3,3.6-53.2
	c-0.5-18.2-0.5-35.4-21.1-57.7c-1.9-2.1-4.6-3.3-7.5-3.3c0,0-58.8-9.2-78.4-9.4C135.2-0.2,75.9,7.9,75.9,7.9z"/>
<path class="st6" d="M62.2,55.5"/>
<path class="st6" d="M-0.5,80.7"/>
<path class="st6" d="M-18.2,16.2"/>
<path class="st7" d="M132.2,233.6c0,0,14.1,4.4,21.1-4.9"/>
<path class="st8" d="M80.9,305.5l7.4,110.9c0,0,60.7-6.2,62.1,8.2c0,0,56.3-29.5,59.9-14.9s0-114.5,0-114.5s-48.8-13-64.7,11
	L80.9,305.5z"/>
<path class="st9" d="M76.5,311.1l11.9,110.8c0,0,53.2-5.4,62.1,8.2c0,0,56.3-29.5,59.9-14.9s0-114.5,0-114.5s-48.8-13-64.7,11
	L76.5,311.1z"/>
<path class="st4" d="M80.9,369.4c0,0,45.6-2.1,3.3,9.2c0,0,45.1-1.8,0.8,7.5c0,0,41,2.6,0.9,7.8c0,0,27.3,2.8-1.4,6.9"/>
<path class="st4" d="M212.9,363.8c0,0-45.6-2.1-3.3,9.2c0,0-45.1-1.8-0.8,7.5c0,0-41,2.6-0.9,7.8c0,0-24.6,4.4,4,8.5"/>
<path class="st6" d="M302.7,80.7"/>
<path class="st6" d="M285.1,16.2"/>
</svg>
